<svg width="894" height="116" viewBox="0 0 894 116" fill="none" xmlns="http://www.w3.org/2000/svg">
<line x1="114.5" y1="99.5" x2="399.5" y2="99.5" stroke="white" stroke-linecap="round"/>
<line x1="487.5" y1="99.5" x2="839.5" y2="99.5" stroke="white" stroke-linecap="round"/>
<path d="M0.5 0.5C4.36133 36.2442 14 100.5 47 100.5" stroke="white"/>
<path d="M72.078 95.242V105H76.768V103.964H73.352V95.242H72.078ZM79.521 105H80.795V95.242H79.521V105ZM88.0203 103.656L84.9543 95.242H83.5963L87.2783 105H88.7483L92.4303 95.242H91.0863L88.0203 103.656ZM100.477 95.228H95.2272V105H100.477V103.95H96.5012V100.59H100.057V99.54H96.5012V96.278H100.477V95.228Z" fill="white"/>
<circle cx="64" cy="100" r="4" fill="#FF0000"/>
<rect x="48.5" y="84.5" width="65" height="31" rx="15.5" stroke="white"/>
<path d="M419.476 95.228V102.984L414.352 95.228H413.078V105H414.352V97.23L419.476 105H420.75V95.228H419.476ZM433.646 100.114C433.646 97.188 431.504 95.13 428.746 95.13C426.002 95.13 423.846 97.188 423.846 100.114C423.846 103.04 426.002 105.098 428.746 105.098C431.504 105.098 433.646 103.04 433.646 100.114ZM425.148 100.114C425.148 97.72 426.688 96.236 428.746 96.236C430.804 96.236 432.344 97.72 432.344 100.114C432.344 102.494 430.804 103.992 428.746 103.992C426.688 103.992 425.148 102.494 425.148 100.114ZM440.382 103.656L437.316 95.242H435.958L439.64 105H441.11L444.792 95.242H443.448L440.382 103.656ZM454.141 105H455.485L451.971 95.298H450.501L446.973 105H448.317L449.101 102.83H453.357L454.141 105ZM452.993 101.794H449.465L451.229 96.866L452.993 101.794ZM463.084 105H464.344V102.746H465.744V101.64H464.344V94.976H462.818L457.904 101.78V102.746H463.084V105ZM459.374 101.64L463.14 96.306V101.64H459.374ZM468.263 104.888H474.997V103.824H470.181C471.987 102.354 474.703 100.212 474.703 97.692C474.703 95.816 473.471 94.696 471.567 94.696C469.747 94.696 468.389 95.816 468.305 97.972H469.537C469.593 96.698 470.265 95.788 471.581 95.788C472.953 95.788 473.443 96.628 473.443 97.748C473.443 99.82 470.923 101.836 468.263 103.978V104.888Z" fill="white"/>
<rect x="400.5" y="84.5" width="87" height="31" rx="15.5" stroke="white"/>
<path d="M853.352 99.876V96.292H855.228C856.684 96.292 857.3 96.964 857.3 98.098C857.3 99.19 856.684 99.876 855.228 99.876H853.352ZM858.602 98.098C858.602 96.502 857.524 95.242 855.228 95.242H852.078V105H853.352V100.926H855.228C857.65 100.926 858.602 99.582 858.602 98.098ZM866.807 98.112C866.807 99.204 866.177 99.988 864.735 99.988H862.859V96.292H864.735C866.191 96.292 866.807 97.006 866.807 98.112ZM861.585 95.242V105H862.859V101.01H864.399L866.723 105H868.249L865.799 100.912C867.437 100.548 868.123 99.358 868.123 98.112C868.123 96.516 867.031 95.242 864.735 95.242H861.585ZM880.827 100.114C880.827 97.188 878.685 95.13 875.927 95.13C873.183 95.13 871.027 97.188 871.027 100.114C871.027 103.04 873.183 105.098 875.927 105.098C878.685 105.098 880.827 103.04 880.827 100.114ZM872.329 100.114C872.329 97.72 873.869 96.236 875.927 96.236C877.985 96.236 879.525 97.72 879.525 100.114C879.525 102.494 877.985 103.992 875.927 103.992C873.869 103.992 872.329 102.494 872.329 100.114Z" fill="white"/>
<path d="M855 84.5H878C886.56 84.5 893.5 91.4396 893.5 100C893.5 108.56 886.56 115.5 878 115.5H855C846.44 115.5 839.5 108.56 839.5 100C839.5 91.4396 846.44 84.5 855 84.5Z" stroke="white"/>
</svg>
