<svg width="338" height="295" viewBox="0 0 338 295" fill="none" xmlns="http://www.w3.org/2000/svg">
<rect width="338" height="295" rx="20" fill="white" fill-opacity="0.12"/>
<path d="M27.126 35.704L27.35 35.48V34.486L27.126 34.262L22.982 33.1L27.126 31.938L27.35 31.714V30.72L27.126 30.496L21.974 32.134L21.75 32.358V33.842L21.974 34.066L27.126 35.704ZM33.8795 35.2H34.8315L35.0555 34.976V28.424L34.8315 28.2H33.8795L33.6555 28.424V34.976L33.8795 35.2ZM33.6695 38H35.0415L35.2655 37.776V36.404L35.0415 36.18H33.6695L33.4455 36.404V37.776L33.6695 38ZM42.8449 38H44.8469L45.6309 37.216V37.776L45.8549 38H46.8069L47.0309 37.776V28.424L46.8069 28.2H45.8549L45.6309 28.424V31.784L44.8469 31H42.8449L41.2909 32.554V36.446L42.8449 38ZM43.4329 36.6L42.6909 35.858V33.142L43.4329 32.4H44.6229L45.6309 33.408V35.592L44.6229 36.6H43.4329ZM52.6504 38H55.2824L56.8364 36.446V32.554L55.2824 31H52.6504L51.0964 32.554V36.446L52.6504 38ZM53.2384 36.6L52.4964 35.858V33.142L53.2384 32.4H54.6944L55.4364 33.142V35.858L54.6944 36.6H53.2384ZM62.3159 38H65.2279L66.6419 36.586V35.34L66.4179 35.116H65.4659L65.2419 35.34V35.998L64.6399 36.6H62.9039L62.3019 35.998V33.002L62.9039 32.4H64.6399L65.2419 33.002V33.66L65.4659 33.884H66.4179L66.6419 33.66V32.414L65.2279 31H62.3159L60.9019 32.414V36.586L62.3159 38ZM72.8913 38H75.3413L76.6153 36.726V34.808L76.3913 34.584H75.4393L75.2153 34.808V36.138L74.7533 36.6H73.4793L73.0173 36.138V32.204L73.2413 31.98H74.9633L75.1873 31.756V30.804L74.9633 30.58H73.2413L73.0173 30.356V28.424L72.7933 28.2H71.8413L71.6173 28.424V30.356L71.3933 30.58H70.6373L70.4133 30.804V31.756L70.6373 31.98H71.3933L71.6173 32.204V36.726L72.8913 38ZM84.0688 37.594L84.8528 36.81V39.092L84.5448 39.4H82.3608L81.9128 38.952V38.462L81.6888 38.238H80.7368L80.5128 38.462V39.54L81.7728 40.8H85.1328L86.2528 39.68V31.224L86.0288 31H85.0768L84.8528 31.224V35.186L83.8448 36.194H82.5008L81.9128 35.606V31.224L81.6888 31H80.7368L80.5128 31.224V36.194L81.9128 37.594H84.0688ZM92.5023 38H94.5043L96.0583 36.446V32.554L94.5043 31H92.5023L91.7183 31.784V31.224L91.4943 31H90.5423L90.3183 31.224V40.576L90.5423 40.8H91.4943L91.7183 40.576V37.216L92.5023 38ZM92.7263 36.6L91.7183 35.592V33.408L92.7263 32.4H93.9163L94.6583 33.142V35.858L93.9163 36.6H92.7263ZM101.244 38H104.744L105.864 36.88V35.914L105.64 35.69H104.688L104.464 35.914V36.292L104.156 36.6H101.832L101.524 36.292V35.424L101.748 35.2H105.64L105.864 34.976V32.12L104.744 31H101.244L100.124 32.12V36.88L101.244 38ZM101.748 33.8L101.524 33.576V32.708L101.832 32.4H104.156L104.464 32.708V33.576L104.24 33.8H101.748ZM119.959 38H120.911L121.135 37.776V33.408L122.143 32.4H123.487L124.075 32.988V37.776L124.299 38H125.251L125.475 37.776V32.4L124.075 31H121.919L121.135 31.784V28.424L120.911 28.2H119.959L119.735 28.424V37.776L119.959 38ZM131.724 38H134.174L135.448 36.726V34.808L135.224 34.584H134.272L134.048 34.808V36.138L133.586 36.6H132.312L131.85 36.138V32.204L132.074 31.98H133.796L134.02 31.756V30.804L133.796 30.58H132.074L131.85 30.356V28.424L131.626 28.2H130.674L130.45 28.424V30.356L130.226 30.58H129.47L129.246 30.804V31.756L129.47 31.98H130.226L130.45 32.204V36.726L131.724 38ZM139.01 38H139.962L140.186 37.776V32.624L140.41 32.4H141.348L141.516 32.568V37.776L141.74 38H142.692L142.916 37.776V32.624L143.14 32.4H144.078L144.246 32.568V37.776L144.47 38H145.422L145.646 37.776V31.98L144.666 31H142.944L142.496 31.56L141.936 31H140.578L140.186 31.49V31.224L139.962 31H139.01L138.786 31.224V37.776L139.01 38ZM149.795 38H154.247L154.471 37.776V36.824L154.247 36.6H153.085L152.861 36.376V28.424L152.637 28.2H150.187L149.963 28.424V29.376L150.187 29.6H151.237L151.461 29.824V36.376L151.237 36.6H149.795L149.571 36.824V37.776L149.795 38ZM159.251 35.704L164.403 34.066L164.627 33.842V32.358L164.403 32.134L159.251 30.496L159.027 30.72V31.714L159.251 31.938L163.395 33.1L159.251 34.262L159.027 34.486V35.48L159.251 35.704ZM66.3479 60.704L66.5719 60.48V59.486L66.3479 59.262L62.2039 58.1L66.3479 56.938L66.5719 56.714V55.72L66.3479 55.496L61.1959 57.134L60.9719 57.358V58.842L61.1959 59.066L66.3479 60.704ZM70.9313 63H71.8833L72.1073 62.776V58.408L73.1153 57.4H74.4593L75.0473 57.988V62.776L75.2713 63H76.2233L76.4473 62.776V57.4L75.0473 56H72.8913L72.1073 56.784V53.424L71.8833 53.2H70.9313L70.7073 53.424V62.776L70.9313 63ZM82.6968 63H85.1468L86.4208 61.726V59.808L86.1968 59.584H85.2448L85.0208 59.808V61.138L84.5588 61.6H83.2848L82.8228 61.138V57.204L83.0468 56.98H84.7688L84.9928 56.756V55.804L84.7688 55.58H83.0468L82.8228 55.356V53.424L82.5988 53.2H81.6468L81.4228 53.424V55.356L81.1988 55.58H80.4428L80.2188 55.804V56.756L80.4428 56.98H81.1988L81.4228 57.204V61.726L82.6968 63ZM89.9823 63H90.9343L91.1583 62.776V57.624L91.3823 57.4H92.3203L92.4883 57.568V62.776L92.7123 63H93.6643L93.8883 62.776V57.624L94.1123 57.4H95.0503L95.2183 57.568V62.776L95.4423 63H96.3943L96.6183 62.776V56.98L95.6383 56H93.9163L93.4683 56.56L92.9083 56H91.5503L91.1583 56.49V56.224L90.9343 56H89.9823L89.7583 56.224V62.776L89.9823 63ZM100.768 63H105.22L105.444 62.776V61.824L105.22 61.6H104.058L103.834 61.376V53.424L103.61 53.2H101.16L100.936 53.424V54.376L101.16 54.6H102.21L102.434 54.824V61.376L102.21 61.6H100.768L100.544 61.824V62.776L100.768 63ZM120.379 63H124.831L125.055 62.776V61.824L124.831 61.6H123.669L123.445 61.376V53.424L123.221 53.2H120.771L120.547 53.424V54.376L120.771 54.6H121.821L122.045 54.824V61.376L121.821 61.6H120.379L120.155 61.824V62.776L120.379 63ZM130.66 63H133.376L133.88 62.496V62.776L134.104 63H135.056L135.28 62.776V57.12L134.16 56H130.66L129.54 57.12V58.086L129.764 58.31H130.716L130.94 58.086V57.708L131.248 57.4H133.572L133.88 57.708V58.576L133.656 58.8H130.66L129.54 59.92V61.88L130.66 63ZM131.248 61.6L130.94 61.292V60.508L131.248 60.2H133.656L133.88 60.424V61.152L133.432 61.6H131.248ZM139.57 63H140.522L140.746 62.776V58.408L141.754 57.4H143.098L143.686 57.988V62.776L143.91 63H144.862L145.086 62.776V57.4L143.686 56H141.53L140.746 56.784V56.224L140.522 56H139.57L139.346 56.224V62.776L139.57 63ZM150.705 62.594H152.707L153.491 61.81V64.092L153.183 64.4H150.999L150.551 63.952V63.462L150.327 63.238H149.375L149.151 63.462V64.54L150.411 65.8H153.771L154.891 64.68V56.224L154.667 56H153.715L153.491 56.224V56.784L152.707 56H150.705L149.151 57.554V61.04L150.705 62.594ZM151.293 61.194L150.551 60.452V58.142L151.293 57.4H152.483L153.491 58.408V60.186L152.483 61.194H151.293ZM159.251 57.4H164.403L164.627 57.176V56.224L164.403 56H159.251L159.027 56.224V57.176L159.251 57.4ZM159.251 60.2H164.403L164.627 59.976V59.024L164.403 58.8H159.251L159.027 59.024V59.976L159.251 60.2ZM169.756 56.966H170.708L170.932 56.742V53.424L170.708 53.2H169.756L169.532 53.424V56.742L169.756 56.966ZM172.556 56.966H173.508L173.732 56.742V53.424L173.508 53.2H172.556L172.332 53.424V56.742L172.556 56.966ZM180.961 54.88H182.193L182.417 54.656V53.424L182.193 53.2H180.961L180.737 53.424V54.656L180.961 54.88ZM179.211 63H183.663L183.887 62.776V61.824L183.663 61.6H182.501L182.277 61.376V56.224L182.053 56H179.211L178.987 56.224V57.176L179.211 57.4H180.653L180.877 57.624V61.376L180.653 61.6H179.211L178.987 61.824V62.776L179.211 63ZM190.557 63H193.007L194.281 61.726V59.808L194.057 59.584H193.105L192.881 59.808V61.138L192.419 61.6H191.145L190.683 61.138V57.204L190.907 56.98H192.629L192.853 56.756V55.804L192.629 55.58H190.907L190.683 55.356V53.424L190.459 53.2H189.507L189.283 53.424V55.356L189.059 55.58H188.303L188.079 55.804V56.756L188.303 56.98H189.059L189.283 57.204V61.726L190.557 63ZM199.172 56.966H200.124L200.348 56.742V53.424L200.124 53.2H199.172L198.948 53.424V56.742L199.172 56.966ZM201.972 56.966H202.924L203.148 56.742V53.424L202.924 53.2H201.972L201.748 53.424V56.742L201.972 56.966ZM208.278 60.704L213.43 59.066L213.654 58.842V57.358L213.43 57.134L208.278 55.496L208.054 55.72V56.714L208.278 56.938L212.422 58.1L208.278 59.262L208.054 59.486V60.48L208.278 60.704ZM66.3479 85.704L66.5719 85.48V84.486L66.3479 84.262L62.2039 83.1L66.3479 81.938L66.5719 81.714V80.72L66.3479 80.496L61.1959 82.134L60.9719 82.358V83.842L61.1959 84.066L66.3479 85.704ZM110.223 85.704L115.375 84.066L115.599 83.842V82.358L115.375 82.134L110.223 80.496L109.999 80.72V81.714L110.223 81.938L114.367 83.1L110.223 84.262L109.999 84.486V85.48L110.223 85.704ZM125.181 85.704L125.405 85.48V84.486L125.181 84.262L121.037 83.1L125.181 81.938L125.405 81.714V80.72L125.181 80.496L120.029 82.134L119.805 82.358V83.842L120.029 84.066L125.181 85.704ZM131.724 88H134.174L135.448 86.726V84.808L135.224 84.584H134.272L134.048 84.808V86.138L133.586 86.6H132.312L131.85 86.138V82.204L132.074 81.98H133.796L134.02 81.756V80.804L133.796 80.58H132.074L131.85 80.356V78.424L131.626 78.2H130.674L130.45 78.424V80.356L130.226 80.58H129.47L129.246 80.804V81.756L129.47 81.98H130.226L130.45 82.204V86.726L131.724 88ZM141.74 79.88H142.972L143.196 79.656V78.424L142.972 78.2H141.74L141.516 78.424V79.656L141.74 79.88ZM139.99 88H144.442L144.666 87.776V86.824L144.442 86.6H143.28L143.056 86.376V81.224L142.832 81H139.99L139.766 81.224V82.176L139.99 82.4H141.432L141.656 82.624V86.376L141.432 86.6H139.99L139.766 86.824V87.776L139.99 88ZM151.335 88H153.785L155.059 86.726V84.808L154.835 84.584H153.883L153.659 84.808V86.138L153.197 86.6H151.923L151.461 86.138V82.204L151.685 81.98H153.407L153.631 81.756V80.804L153.407 80.58H151.685L151.461 80.356V78.424L151.237 78.2H150.285L150.061 78.424V80.356L149.837 80.58H149.081L148.857 80.804V81.756L149.081 81.98H149.837L150.061 82.204V86.726L151.335 88ZM159.601 88H164.053L164.277 87.776V86.824L164.053 86.6H162.891L162.667 86.376V78.424L162.443 78.2H159.993L159.769 78.424V79.376L159.993 79.6H161.043L161.267 79.824V86.376L161.043 86.6H159.601L159.377 86.824V87.776L159.601 88ZM169.882 88H173.382L174.502 86.88V85.914L174.278 85.69H173.326L173.102 85.914V86.292L172.794 86.6H170.47L170.162 86.292V85.424L170.386 85.2H174.278L174.502 84.976V82.12L173.382 81H169.882L168.762 82.12V86.88L169.882 88ZM170.386 83.8L170.162 83.576V82.708L170.47 82.4H172.794L173.102 82.708V83.576L172.878 83.8H170.386ZM178.861 85.704L184.013 84.066L184.237 83.842V82.358L184.013 82.134L178.861 80.496L178.637 80.72V81.714L178.861 81.938L183.005 83.1L178.861 84.262L178.637 84.486V85.48L178.861 85.704ZM189.633 88H192.853L194.393 86.46V84.654L194.169 84.43H193.217L192.993 84.654V85.872L192.265 86.6H190.221L189.493 85.872V80.328L190.221 79.6H192.265L192.993 80.328V81.546L193.217 81.77H194.169L194.393 81.546V79.74L192.853 78.2H189.633L188.093 79.74V86.46L189.633 88ZM200.572 79.88H201.804L202.028 79.656V78.424L201.804 78.2H200.572L200.348 78.424V79.656L200.572 79.88ZM198.822 88H203.274L203.498 87.776V86.824L203.274 86.6H202.112L201.888 86.376V81.224L201.664 81H198.822L198.598 81.224V82.176L198.822 82.4H200.264L200.488 82.624V86.376L200.264 86.6H198.822L198.598 86.824V87.776L198.822 88ZM209.104 88H211.82L212.324 87.496V87.776L212.548 88H213.5L213.724 87.776V82.12L212.604 81H209.104L207.984 82.12V83.086L208.208 83.31H209.16L209.384 83.086V82.708L209.692 82.4H212.016L212.324 82.708V83.576L212.1 83.8H209.104L207.984 84.92V86.88L209.104 88ZM209.692 86.6L209.384 86.292V85.508L209.692 85.2H212.1L212.324 85.424V86.152L211.876 86.6H209.692ZM219.343 88H221.975L223.529 86.446V82.554L221.975 81H219.343L217.789 82.554V86.446L219.343 88ZM219.931 86.6L219.189 85.858V83.142L219.931 82.4H221.387L222.129 83.142V85.858L221.387 86.6H219.931ZM237.344 88H238.296L238.52 87.776V80.314L239.57 81.504V84.276L239.794 84.5H240.746L240.97 84.276V81.504L242.02 80.314V87.776L242.244 88H243.196L243.42 87.776V78.424L243.196 78.2H242.02L240.27 80.188L238.52 78.2H237.344L237.12 78.424V87.776L237.344 88ZM248.76 88H251.392L252.946 86.446V82.554L251.392 81H248.76L247.206 82.554V86.446L248.76 88ZM249.348 86.6L248.606 85.858V83.142L249.348 82.4H250.804L251.546 83.142V85.858L250.804 86.6H249.348ZM257.235 88H258.187L258.411 87.776V83.408L259.419 82.4H260.763L261.351 82.988V87.776L261.575 88H262.527L262.751 87.776V82.4L261.351 81H259.195L258.411 81.784V81.224L258.187 81H257.235L257.011 81.224V87.776L257.235 88ZM268.371 88H270.373L271.157 87.216V87.776L271.381 88H272.333L272.557 87.776V78.424L272.333 78.2H271.381L271.157 78.424V81.784L270.373 81H268.371L266.817 82.554V86.446L268.371 88ZM268.959 86.6L268.217 85.858V83.142L268.959 82.4H270.149L271.157 83.408V85.592L270.149 86.6H268.959ZM278.176 88H280.808L282.362 86.446V82.554L280.808 81H278.176L276.622 82.554V86.446L278.176 88ZM278.764 86.6L278.022 85.858V83.142L278.764 82.4H280.22L280.962 83.142V85.858L280.22 86.6H278.764ZM288.822 85.2H289.774L289.998 84.976V78.424L289.774 78.2H288.822L288.598 78.424V84.976L288.822 85.2ZM288.612 88H289.984L290.208 87.776V86.404L289.984 86.18H288.612L288.388 86.404V87.776L288.612 88ZM301.679 85.704L301.903 85.48V84.486L301.679 84.262L297.535 83.1L301.679 81.938L301.903 81.714V80.72L301.679 80.496L296.527 82.134L296.303 82.358V83.842L296.527 84.066L301.679 85.704ZM305.983 88H306.935L307.159 87.776V86.558L312.059 80.09V78.424L311.835 78.2H310.883L310.659 78.424V79.614L305.759 86.082V87.776L305.983 88ZM23.864 113H26.314L27.588 111.726V109.808L27.364 109.584H26.412L26.188 109.808V111.138L25.726 111.6H24.452L23.99 111.138V107.204L24.214 106.98H25.936L26.16 106.756V105.804L25.936 105.58H24.214L23.99 105.356V103.424L23.766 103.2H22.814L22.59 103.424V105.356L22.366 105.58H21.61L21.386 105.804V106.756L21.61 106.98H22.366L22.59 107.204V111.726L23.864 113ZM33.8795 104.88H35.1115L35.3355 104.656V103.424L35.1115 103.2H33.8795L33.6555 103.424V104.656L33.8795 104.88ZM32.1295 113H36.5815L36.8055 112.776V111.824L36.5815 111.6H35.4195L35.1955 111.376V106.224L34.9715 106H32.1295L31.9055 106.224V107.176L32.1295 107.4H33.5715L33.7955 107.624V111.376L33.5715 111.6H32.1295L31.9055 111.824V112.776L32.1295 113ZM43.4749 113H45.9249L47.1989 111.726V109.808L46.9749 109.584H46.0229L45.7989 109.808V111.138L45.3369 111.6H44.0629L43.6009 111.138V107.204L43.8249 106.98H45.5469L45.7709 106.756V105.804L45.5469 105.58H43.8249L43.6009 105.356V103.424L43.3769 103.2H42.4249L42.2009 103.424V105.356L41.9769 105.58H41.2209L40.9969 105.804V106.756L41.2209 106.98H41.9769L42.2009 107.204V111.726L43.4749 113ZM51.7404 113H56.1924L56.4164 112.776V111.824L56.1924 111.6H55.0304L54.8064 111.376V103.424L54.5824 103.2H52.1324L51.9084 103.424V104.376L52.1324 104.6H53.1824L53.4064 104.824V111.376L53.1824 111.6H51.7404L51.5164 111.824V112.776L51.7404 113ZM62.0219 113H65.5219L66.6419 111.88V110.914L66.4179 110.69H65.4659L65.2419 110.914V111.292L64.9339 111.6H62.6099L62.3019 111.292V110.424L62.5259 110.2H66.4179L66.6419 109.976V107.12L65.5219 106H62.0219L60.9019 107.12V111.88L62.0219 113ZM62.5259 108.8L62.3019 108.576V107.708L62.6099 107.4H64.9339L65.2419 107.708V108.576L65.0179 108.8H62.5259ZM71.0013 110.704L76.1533 109.066L76.3773 108.842V107.358L76.1533 107.134L71.0013 105.496L70.7773 105.72V106.714L71.0013 106.938L75.1453 108.1L71.0013 109.262L70.7773 109.486V110.48L71.0013 110.704ZM85.9588 110.704L86.1828 110.48V109.486L85.9588 109.262L81.8148 108.1L85.9588 106.938L86.1828 106.714V105.72L85.9588 105.496L80.8068 107.134L80.5828 107.358V108.842L80.8068 109.066L85.9588 110.704ZM90.2623 113H91.2143L91.4383 112.776V111.558L96.3383 105.09V103.424L96.1143 103.2H95.1623L94.9383 103.424V104.614L90.0383 111.082V112.776L90.2623 113ZM139.64 110.704L144.792 109.066L145.016 108.842V107.358L144.792 107.134L139.64 105.496L139.416 105.72V106.714L139.64 106.938L143.784 108.1L139.64 109.262L139.416 109.486V110.48L139.64 110.704ZM27.126 135.704L27.35 135.48V134.486L27.126 134.262L22.982 133.1L27.126 131.938L27.35 131.714V130.72L27.126 130.496L21.974 132.134L21.75 132.358V133.842L21.974 134.066L27.126 135.704ZM31.7095 138H32.6615L32.8855 137.776V137.216L33.6695 138H35.6715L37.2255 136.446V132.554L35.6715 131H33.6695L32.8855 131.784V128.424L32.6615 128.2H31.7095L31.4855 128.424V137.776L31.7095 138ZM33.8935 136.6L32.8855 135.592V133.408L33.8935 132.4H35.0835L35.8255 133.142V135.858L35.0835 136.6H33.8935ZM42.8449 138H45.4769L47.0309 136.446V132.554L45.4769 131H42.8449L41.2909 132.554V136.446L42.8449 138ZM43.4329 136.6L42.6909 135.858V133.142L43.4329 132.4H44.8889L45.6309 133.142V135.858L44.8889 136.6H43.4329ZM52.6504 138H54.6524L55.4364 137.216V137.776L55.6604 138H56.6124L56.8364 137.776V128.424L56.6124 128.2H55.6604L55.4364 128.424V131.784L54.6524 131H52.6504L51.0964 132.554V136.446L52.6504 138ZM53.2384 136.6L52.4964 135.858V133.142L53.2384 132.4H54.4284L55.4364 133.408V135.592L54.4284 136.6H53.2384ZM64.4579 137.594L65.2419 136.81V139.092L64.9339 139.4H62.7499L62.3019 138.952V138.462L62.0779 138.238H61.1259L60.9019 138.462V139.54L62.1619 140.8H65.5219L66.6419 139.68V131.224L66.4179 131H65.4659L65.2419 131.224V135.186L64.2339 136.194H62.8899L62.3019 135.606V131.224L62.0779 131H61.1259L60.9019 131.224V136.194L62.3019 137.594H64.4579ZM71.0013 135.704L76.1533 134.066L76.3773 133.842V132.358L76.1533 132.134L71.0013 130.496L70.7773 130.72V131.714L71.0013 131.938L75.1453 133.1L71.0013 134.262L70.7773 134.486V135.48L71.0013 135.704ZM66.3479 160.704L66.5719 160.48V159.486L66.3479 159.262L62.2039 158.1L66.3479 156.938L66.5719 156.714V155.72L66.3479 155.496L61.1959 157.134L60.9719 157.358V158.842L61.1959 159.066L66.3479 160.704ZM70.9313 163H71.8833L72.1073 162.776V158.408L73.1153 157.4H74.4593L75.0473 157.988V162.776L75.2713 163H76.2233L76.4473 162.776V157.4L75.0473 156H72.8913L72.1073 156.784V153.424L71.8833 153.2H70.9313L70.7073 153.424V162.776L70.9313 163ZM80.4568 163H86.3088L86.5328 162.776V161.824L86.3088 161.6H84.3068L84.0828 161.376V153.424L83.8588 153.2H81.1568L80.9328 153.424V154.376L81.1568 154.6H82.4588L82.6828 154.824V161.376L82.4588 161.6H80.4568L80.2328 161.824V162.776L80.4568 163ZM90.6123 160.704L95.7643 159.066L95.9883 158.842V157.358L95.7643 157.134L90.6123 155.496L90.3883 155.72V156.714L90.6123 156.938L94.7563 158.1L90.6123 159.262L90.3883 159.486V160.48L90.6123 160.704ZM101.384 163H104.604L106.144 161.46V159.654L105.92 159.43H104.968L104.744 159.654V160.872L104.016 161.6H101.972L101.244 160.872V155.328L101.972 154.6H104.016L104.744 155.328V156.546L104.968 156.77H105.92L106.144 156.546V154.74L104.604 153.2H101.384L99.8437 154.74V161.46L101.384 163ZM112.323 154.88H113.555L113.779 154.656V153.424L113.555 153.2H112.323L112.099 153.424V154.656L112.323 154.88ZM110.573 163H115.025L115.249 162.776V161.824L115.025 161.6H113.863L113.639 161.376V156.224L113.415 156H110.573L110.349 156.224V157.176L110.573 157.4H112.015L112.239 157.624V161.376L112.015 161.6H110.573L110.349 161.824V162.776L110.573 163ZM120.855 163H123.571L124.075 162.496V162.776L124.299 163H125.251L125.475 162.776V157.12L124.355 156H120.855L119.735 157.12V158.086L119.959 158.31H120.911L121.135 158.086V157.708L121.443 157.4H123.767L124.075 157.708V158.576L123.851 158.8H120.855L119.735 159.92V161.88L120.855 163ZM121.443 161.6L121.135 161.292V160.508L121.443 160.2H123.851L124.075 160.424V161.152L123.627 161.6H121.443ZM131.094 163H133.726L135.28 161.446V157.554L133.726 156H131.094L129.54 157.554V161.446L131.094 163ZM131.682 161.6L130.94 160.858V158.142L131.682 157.4H133.138L133.88 158.142V160.858L133.138 161.6H131.682ZM149.095 163H150.047L150.271 162.776V155.314L151.321 156.504V159.276L151.545 159.5H152.497L152.721 159.276V156.504L153.771 155.314V162.776L153.995 163H154.947L155.171 162.776V153.424L154.947 153.2H153.771L152.021 155.188L150.271 153.2H149.095L148.871 153.424V162.776L149.095 163ZM160.511 163H163.143L164.697 161.446V157.554L163.143 156H160.511L158.957 157.554V161.446L160.511 163ZM161.099 161.6L160.357 160.858V158.142L161.099 157.4H162.555L163.297 158.142V160.858L162.555 161.6H161.099ZM168.986 163H169.938L170.162 162.776V158.408L171.17 157.4H172.514L173.102 157.988V162.776L173.326 163H174.278L174.502 162.776V157.4L173.102 156H170.946L170.162 156.784V156.224L169.938 156H168.986L168.762 156.224V162.776L168.986 163ZM180.121 163H182.123L182.907 162.216V162.776L183.131 163H184.083L184.307 162.776V153.424L184.083 153.2H183.131L182.907 153.424V156.784L182.123 156H180.121L178.567 157.554V161.446L180.121 163ZM180.709 161.6L179.967 160.858V158.142L180.709 157.4H181.899L182.907 158.408V160.592L181.899 161.6H180.709ZM189.927 163H192.559L194.113 161.446V157.554L192.559 156H189.927L188.373 157.554V161.446L189.927 163ZM190.515 161.6L189.773 160.858V158.142L190.515 157.4H191.971L192.713 158.142V160.858L191.971 161.6H190.515ZM200.572 160.2H201.524L201.748 159.976V153.424L201.524 153.2H200.572L200.348 153.424V159.976L200.572 160.2ZM200.362 163H201.734L201.958 162.776V161.404L201.734 161.18H200.362L200.138 161.404V162.776L200.362 163ZM213.43 160.704L213.654 160.48V159.486L213.43 159.262L209.286 158.1L213.43 156.938L213.654 156.714V155.72L213.43 155.496L208.278 157.134L208.054 157.358V158.842L208.278 159.066L213.43 160.704ZM217.733 163H218.685L218.909 162.776V161.558L223.809 155.09V153.424L223.585 153.2H222.633L222.409 153.424V154.614L217.509 161.082V162.776L217.733 163ZM227.819 163H228.771L228.995 162.776V158.408L230.003 157.4H231.347L231.935 157.988V162.776L232.159 163H233.111L233.335 162.776V157.4L231.935 156H229.779L228.995 156.784V153.424L228.771 153.2H227.819L227.595 153.424V162.776L227.819 163ZM237.344 163H243.196L243.42 162.776V161.824L243.196 161.6H241.194L240.97 161.376V153.424L240.746 153.2H238.044L237.82 153.424V154.376L238.044 154.6H239.346L239.57 154.824V161.376L239.346 161.6H237.344L237.12 161.824V162.776L237.344 163ZM247.5 160.704L252.652 159.066L252.876 158.842V157.358L252.652 157.134L247.5 155.496L247.276 155.72V156.714L247.5 156.938L251.644 158.1L247.5 159.262L247.276 159.486V160.48L247.5 160.704ZM66.3479 185.704L66.5719 185.48V184.486L66.3479 184.262L62.2039 183.1L66.3479 181.938L66.5719 181.714V180.72L66.3479 180.496L61.1959 182.134L60.9719 182.358V183.842L61.1959 184.066L66.3479 185.704ZM72.8913 188H74.8933L76.4473 186.446V182.554L74.8933 181H72.8913L72.1073 181.784V181.224L71.8833 181H70.9313L70.7073 181.224V190.576L70.9313 190.8H71.8833L72.1073 190.576V187.216L72.8913 188ZM73.1153 186.6L72.1073 185.592V183.408L73.1153 182.4H74.3053L75.0473 183.142V185.858L74.3053 186.6H73.1153ZM80.8068 185.704L85.9588 184.066L86.1828 183.842V182.358L85.9588 182.134L80.8068 180.496L80.5828 180.72V181.714L80.8068 181.938L84.9508 183.1L80.8068 184.262L80.5828 184.486V185.48L80.8068 185.704ZM203.624 210.704L203.848 210.48V209.486L203.624 209.262L199.48 208.1L203.624 206.938L203.848 206.714V205.72L203.624 205.496L198.472 207.134L198.248 207.358V208.842L198.472 209.066L203.624 210.704ZM207.928 213H208.88L209.104 212.776V211.558L214.004 205.09V203.424L213.78 203.2H212.828L212.604 203.424V204.614L207.704 211.082V212.776L207.928 213ZM219.973 213H221.975L223.529 211.446V207.554L221.975 206H219.973L219.189 206.784V206.224L218.965 206H218.013L217.789 206.224V215.576L218.013 215.8H218.965L219.189 215.576V212.216L219.973 213ZM220.197 211.6L219.189 210.592V208.408L220.197 207.4H221.387L222.129 208.142V210.858L221.387 211.6H220.197ZM227.889 210.704L233.041 209.066L233.265 208.842V207.358L233.041 207.134L227.889 205.496L227.665 205.72V206.714L227.889 206.938L232.033 208.1L227.889 209.262L227.665 209.486V210.48L227.889 210.704ZM66.3479 235.704L66.5719 235.48V234.486L66.3479 234.262L62.2039 233.1L66.3479 231.938L66.5719 231.714V230.72L66.3479 230.496L61.1959 232.134L60.9719 232.358V233.842L61.1959 234.066L66.3479 235.704ZM70.6513 238H71.6033L71.8273 237.776V236.558L76.7273 230.09V228.424L76.5033 228.2H75.5513L75.3273 228.424V229.614L70.4273 236.082V237.776L70.6513 238ZM80.7368 238H81.6888L81.9128 237.776V237.216L82.6968 238H84.6988L86.2528 236.446V232.554L84.6988 231H82.6968L81.9128 231.784V228.424L81.6888 228.2H80.7368L80.5128 228.424V237.776L80.7368 238ZM82.9208 236.6L81.9128 235.592V233.408L82.9208 232.4H84.1108L84.8528 233.142V235.858L84.1108 236.6H82.9208ZM91.8723 238H94.5043L96.0583 236.446V232.554L94.5043 231H91.8723L90.3183 232.554V236.446L91.8723 238ZM92.4603 236.6L91.7183 235.858V233.142L92.4603 232.4H93.9163L94.6583 233.142V235.858L93.9163 236.6H92.4603ZM101.678 238H103.68L104.464 237.216V237.776L104.688 238H105.64L105.864 237.776V228.424L105.64 228.2H104.688L104.464 228.424V231.784L103.68 231H101.678L100.124 232.554V236.446L101.678 238ZM102.266 236.6L101.524 235.858V233.142L102.266 232.4H103.456L104.464 233.408V235.592L103.456 236.6H102.266ZM113.485 237.594L114.269 236.81V239.092L113.961 239.4H111.777L111.329 238.952V238.462L111.105 238.238H110.153L109.929 238.462V239.54L111.189 240.8H114.549L115.669 239.68V231.224L115.445 231H114.493L114.269 231.224V235.186L113.261 236.194H111.917L111.329 235.606V231.224L111.105 231H110.153L109.929 231.224V236.194L111.329 237.594H113.485ZM120.029 235.704L125.181 234.066L125.405 233.842V232.358L125.181 232.134L120.029 230.496L119.805 230.72V231.714L120.029 231.938L124.173 233.1L120.029 234.262L119.805 234.486V235.48L120.029 235.704ZM27.126 260.704L27.35 260.48V259.486L27.126 259.262L22.982 258.1L27.126 256.938L27.35 256.714V255.72L27.126 255.496L21.974 257.134L21.75 257.358V258.842L21.974 259.066L27.126 260.704ZM31.4295 263H32.3815L32.6055 262.776V261.558L37.5055 255.09V253.424L37.2815 253.2H36.3295L36.1055 253.424V254.614L31.2055 261.082V262.776L31.4295 263ZM41.5149 263H42.4669L42.6909 262.776V258.408L43.6989 257.4H45.0429L45.6309 257.988V262.776L45.8549 263H46.8069L47.0309 262.776V257.4L45.6309 256H43.4749L42.6909 256.784V253.424L42.4669 253.2H41.5149L41.2909 253.424V262.776L41.5149 263ZM53.2804 263H55.7304L57.0044 261.726V259.808L56.7804 259.584H55.8284L55.6044 259.808V261.138L55.1424 261.6H53.8684L53.4064 261.138V257.204L53.6304 256.98H55.3524L55.5764 256.756V255.804L55.3524 255.58H53.6304L53.4064 255.356V253.424L53.1824 253.2H52.2304L52.0064 253.424V255.356L51.7824 255.58H51.0264L50.8024 255.804V256.756L51.0264 256.98H51.7824L52.0064 257.204V261.726L53.2804 263ZM60.5659 263H61.5179L61.7419 262.776V257.624L61.9659 257.4H62.9039L63.0719 257.568V262.776L63.2959 263H64.2479L64.4719 262.776V257.624L64.6959 257.4H65.6339L65.8019 257.568V262.776L66.0259 263H66.9779L67.2019 262.776V256.98L66.2219 256H64.4999L64.0519 256.56L63.4919 256H62.1339L61.7419 256.49V256.224L61.5179 256H60.5659L60.3419 256.224V262.776L60.5659 263ZM71.3513 263H75.8033L76.0273 262.776V261.824L75.8033 261.6H74.6413L74.4173 261.376V253.424L74.1933 253.2H71.7433L71.5193 253.424V254.376L71.7433 254.6H72.7933L73.0173 254.824V261.376L72.7933 261.6H71.3513L71.1273 261.824V262.776L71.3513 263ZM80.8068 260.704L85.9588 259.066L86.1828 258.842V257.358L85.9588 257.134L80.8068 255.496L80.5828 255.72V256.714L80.8068 256.938L84.9508 258.1L80.8068 259.262L80.5828 259.486V260.48L80.8068 260.704Z" fill="white"/>
<path d="M70.9313 88H71.8833L72.1073 87.776V83.408L73.1153 82.4H74.4593L75.0473 82.988V87.776L75.2713 88H76.2233L76.4473 87.776V82.4L75.0473 81H72.8913L72.1073 81.784V78.424L71.8833 78.2H70.9313L70.7073 78.424V87.776L70.9313 88ZM81.6328 88H85.1328L86.2528 86.88V85.914L86.0288 85.69H85.0768L84.8528 85.914V86.292L84.5448 86.6H82.2208L81.9128 86.292V85.424L82.1368 85.2H86.0288L86.2528 84.976V82.12L85.1328 81H81.6328L80.5128 82.12V86.88L81.6328 88ZM82.1368 83.8L81.9128 83.576V82.708L82.2208 82.4H84.5448L84.8528 82.708V83.576L84.6288 83.8H82.1368ZM91.4383 88H94.1543L94.6583 87.496V87.776L94.8823 88H95.8343L96.0583 87.776V82.12L94.9383 81H91.4383L90.3183 82.12V83.086L90.5423 83.31H91.4943L91.7183 83.086V82.708L92.0263 82.4H94.3503L94.6583 82.708V83.576L94.4343 83.8H91.4383L90.3183 84.92V86.88L91.4383 88ZM92.0263 86.6L91.7183 86.292V85.508L92.0263 85.2H94.4343L94.6583 85.424V86.152L94.2103 86.6H92.0263ZM101.678 88H103.68L104.464 87.216V87.776L104.688 88H105.64L105.864 87.776V78.424L105.64 78.2H104.688L104.464 78.424V81.784L103.68 81H101.678L100.124 82.554V86.446L101.678 88ZM102.266 86.6L101.524 85.858V83.142L102.266 82.4H103.456L104.464 83.408V85.592L103.456 86.6H102.266ZM100.348 113H101.3L101.524 112.776V108.408L102.532 107.4H103.876L104.464 107.988V112.776L104.688 113H105.64L105.864 112.776V107.4L104.464 106H102.308L101.524 106.784V103.424L101.3 103.2H100.348L100.124 103.424V112.776L100.348 113ZM111.049 113H114.549L115.669 111.88V110.914L115.445 110.69H114.493L114.269 110.914V111.292L113.961 111.6H111.637L111.329 111.292V110.424L111.553 110.2H115.445L115.669 109.976V107.12L114.549 106H111.049L109.929 107.12V111.88L111.049 113ZM111.553 108.8L111.329 108.576V107.708L111.637 107.4H113.961L114.269 107.708V108.576L114.045 108.8H111.553ZM120.855 113H123.571L124.075 112.496V112.776L124.299 113H125.251L125.475 112.776V107.12L124.355 106H120.855L119.735 107.12V108.086L119.959 108.31H120.911L121.135 108.086V107.708L121.443 107.4H123.767L124.075 107.708V108.576L123.851 108.8H120.855L119.735 109.92V111.88L120.855 113ZM121.443 111.6L121.135 111.292V110.508L121.443 110.2H123.851L124.075 110.424V111.152L123.627 111.6H121.443ZM131.094 113H133.096L133.88 112.216V112.776L134.104 113H135.056L135.28 112.776V103.424L135.056 103.2H134.104L133.88 103.424V106.784L133.096 106H131.094L129.54 107.554V111.446L131.094 113ZM131.682 111.6L130.94 110.858V108.142L131.682 107.4H132.872L133.88 108.408V110.592L132.872 111.6H131.682Z" fill="#B7FFAB"/>
<path d="M91.5783 188H92.4883V189.33L92.7123 189.554H93.6643L93.8883 189.33V188H94.7983L96.3383 186.46V179.74L94.7983 178.2H91.5783L90.0383 179.74V186.46L91.5783 188ZM92.1663 186.6L91.4383 185.872V180.328L92.1663 179.6H94.2103L94.9383 180.328V185.872L94.2103 186.6H93.8883V185.27L93.6643 185.046H92.7123L92.4883 185.27V186.6H92.1663ZM101.524 188H103.68L104.464 187.216V187.776L104.688 188H105.64L105.864 187.776V181.224L105.64 181H104.688L104.464 181.224V185.592L103.456 186.6H102.112L101.524 186.012V181.224L101.3 181H100.348L100.124 181.224V186.6L101.524 188ZM111.049 188H114.549L115.669 186.88V185.914L115.445 185.69H114.493L114.269 185.914V186.292L113.961 186.6H111.637L111.329 186.292V185.424L111.553 185.2H115.445L115.669 184.976V182.12L114.549 181H111.049L109.929 182.12V186.88L111.049 188ZM111.553 183.8L111.329 183.576V182.708L111.637 182.4H113.961L114.269 182.708V183.576L114.045 183.8H111.553ZM120.939 188H124.271L125.475 186.796V185.004L124.271 183.8H121.527L121.135 183.408V182.792L121.527 182.4H123.683L124.075 182.792V183.17L124.299 183.394H125.251L125.475 183.17V182.204L124.271 181H120.939L119.735 182.204V183.996L120.939 185.2H123.683L124.075 185.592V186.208L123.683 186.6H121.527L121.135 186.208V185.83L120.911 185.606H119.959L119.735 185.83V186.796L120.939 188ZM131.724 188H134.174L135.448 186.726V184.808L135.224 184.584H134.272L134.048 184.808V186.138L133.586 186.6H132.312L131.85 186.138V182.204L132.074 181.98H133.796L134.02 181.756V180.804L133.796 180.58H132.074L131.85 180.356V178.424L131.626 178.2H130.674L130.45 178.424V180.356L130.226 180.58H129.47L129.246 180.804V181.756L129.47 181.98H130.226L130.45 182.204V186.726L131.724 188ZM140.466 188H143.182L143.686 187.496V187.776L143.91 188H144.862L145.086 187.776V182.12L143.966 181H140.466L139.346 182.12V183.086L139.57 183.31H140.522L140.746 183.086V182.708L141.054 182.4H143.378L143.686 182.708V183.576L143.462 183.8H140.466L139.346 184.92V186.88L140.466 188ZM141.054 186.6L140.746 186.292V185.508L141.054 185.2H143.462L143.686 185.424V186.152L143.238 186.6H141.054ZM161.351 180.51H162.527L161.505 178.2H160.105L160.007 178.382L161.351 180.51ZM160.077 188H163.577L164.697 186.88V185.914L164.473 185.69H163.521L163.297 185.914V186.292L162.989 186.6H160.665L160.357 186.292V185.424L160.581 185.2H164.473L164.697 184.976V182.12L163.577 181H160.077L158.957 182.12V186.88L160.077 188ZM160.581 183.8L160.357 183.576V182.708L160.665 182.4H162.989L163.297 182.708V183.576L163.073 183.8H160.581ZM179.211 188H183.663L183.887 187.776V186.824L183.663 186.6H182.501L182.277 186.376V178.424L182.053 178.2H179.603L179.379 178.424V179.376L179.603 179.6H180.653L180.877 179.824V186.376L180.653 186.6H179.211L178.987 186.824V187.776L179.211 188ZM189.493 188H192.209L192.713 187.496V187.776L192.937 188H193.889L194.113 187.776V182.12L192.993 181H189.493L188.373 182.12V183.086L188.597 183.31H189.549L189.773 183.086V182.708L190.081 182.4H192.405L192.713 182.708V183.576L192.489 183.8H189.493L188.373 184.92V186.88L189.493 188ZM190.081 186.6L189.773 186.292V185.508L190.081 185.2H192.489L192.713 185.424V186.152L192.265 186.6H190.081ZM208.208 188H209.16L209.384 187.776V183.408L210.392 182.4H211.736L212.324 182.988V187.776L212.548 188H213.5L213.724 187.776V182.4L212.324 181H210.168L209.384 181.784V181.224L209.16 181H208.208L207.984 181.224V187.776L208.208 188ZM219.343 188H221.975L223.529 186.446V182.554L221.975 181H219.343L217.789 182.554V186.446L219.343 188ZM219.931 186.6L219.189 185.858V183.142L219.931 182.4H221.387L222.129 183.142V185.858L221.387 186.6H219.931ZM228.799 188H232.131L233.335 186.796V185.004L232.131 183.8H229.387L228.995 183.408V182.792L229.387 182.4H231.543L231.935 182.792V183.17L232.159 183.394H233.111L233.335 183.17V182.204L232.131 181H228.799L227.595 182.204V183.996L228.799 185.2H231.543L231.935 185.592V186.208L231.543 186.6H229.387L228.995 186.208V185.83L228.771 185.606H227.819L227.595 185.83V186.796L228.799 188ZM239.584 188H242.034L243.308 186.726V184.808L243.084 184.584H242.132L241.908 184.808V186.138L241.446 186.6H240.172L239.71 186.138V182.204L239.934 181.98H241.656L241.88 181.756V180.804L241.656 180.58H239.934L239.71 180.356V178.424L239.486 178.2H238.534L238.31 178.424V180.356L238.086 180.58H237.33L237.106 180.804V181.756L237.33 181.98H238.086L238.31 182.204V186.726L239.584 188ZM247.178 188H251.644L251.868 187.776V186.824L251.644 186.6H249.782L249.558 186.376V183.408L250.566 182.4H251.504L251.812 182.708V183.87L252.036 184.094H252.988L253.212 183.87V182.12L252.092 181H250.342L249.558 181.784V181.224L249.334 181H248.382L248.158 181.224V186.376L247.934 186.6H247.178L246.954 186.824V187.776L247.178 188ZM258.131 188H260.847L261.351 187.496V187.776L261.575 188H262.527L262.751 187.776V182.12L261.631 181H258.131L257.011 182.12V183.086L257.235 183.31H258.187L258.411 183.086V182.708L258.719 182.4H261.043L261.351 182.708V183.576L261.127 183.8H258.131L257.011 184.92V186.88L258.131 188ZM258.719 186.6L258.411 186.292V185.508L258.719 185.2H261.127L261.351 185.424V186.152L260.903 186.6H258.719ZM23.864 213H25.866L27.42 211.446V207.554L25.866 206H23.864L23.08 206.784V206.224L22.856 206H21.904L21.68 206.224V215.576L21.904 215.8H22.856L23.08 215.576V212.216L23.864 213ZM24.088 211.6L23.08 210.592V208.408L24.088 207.4H25.278L26.02 208.142V210.858L25.278 211.6H24.088ZM31.4575 213H35.9235L36.1475 212.776V211.824L35.9235 211.6H34.0615L33.8375 211.376V208.408L34.8455 207.4H35.7835L36.0915 207.708V208.87L36.3155 209.094H37.2675L37.4915 208.87V207.12L36.3715 206H34.6215L33.8375 206.784V206.224L33.6135 206H32.6615L32.4375 206.224V211.376L32.2135 211.6H31.4575L31.2335 211.824V212.776L31.4575 213ZM43.6849 204.88H44.9169L45.1409 204.656V203.424L44.9169 203.2H43.6849L43.4609 203.424V204.656L43.6849 204.88ZM41.9349 213H46.3869L46.6109 212.776V211.824L46.3869 211.6H45.2249L45.0009 211.376V206.224L44.7769 206H41.9349L41.7109 206.224V207.176L41.9349 207.4H43.3769L43.6009 207.624V211.376L43.3769 211.6H41.9349L41.7109 211.824V212.776L41.9349 213ZM50.7604 213H51.7124L51.9364 212.776V207.624L52.1604 207.4H53.0984L53.2664 207.568V212.776L53.4904 213H54.4424L54.6664 212.776V207.624L54.8904 207.4H55.8284L55.9964 207.568V212.776L56.2204 213H57.1724L57.3964 212.776V206.98L56.4164 206H54.6944L54.2464 206.56L53.6864 206H52.3284L51.9364 206.49V206.224L51.7124 206H50.7604L50.5364 206.224V212.776L50.7604 213ZM62.0219 213H64.7379L65.2419 212.496V212.776L65.4659 213H66.4179L66.6419 212.776V207.12L65.5219 206H62.0219L60.9019 207.12V208.086L61.1259 208.31H62.0779L62.3019 208.086V207.708L62.6099 207.4H64.9339L65.2419 207.708V208.576L65.0179 208.8H62.0219L60.9019 209.92V211.88L62.0219 213ZM62.6099 211.6L62.3019 211.292V210.508L62.6099 210.2H65.0179L65.2419 210.424V211.152L64.7939 211.6H62.6099ZM82.6968 213H84.6988L86.2528 211.446V207.554L84.6988 206H82.6968L81.9128 206.784V206.224L81.6888 206H80.7368L80.5128 206.224V215.576L80.7368 215.8H81.6888L81.9128 215.576V212.216L82.6968 213ZM82.9208 211.6L81.9128 210.592V208.408L82.9208 207.4H84.1108L84.8528 208.142V210.858L84.1108 211.6H82.9208ZM91.4383 213H94.1543L94.6583 212.496V212.776L94.8823 213H95.8343L96.0583 212.776V207.12L94.9383 206H91.4383L90.3183 207.12V208.086L90.5423 208.31H91.4943L91.7183 208.086V207.708L92.0263 207.4H94.3503L94.6583 207.708V208.576L94.4343 208.8H91.4383L90.3183 209.92V211.88L91.4383 213ZM92.0263 211.6L91.7183 211.292V210.508L92.0263 210.2H94.4343L94.6583 210.424V211.152L94.2103 211.6H92.0263ZM101.678 212.594H103.68L104.464 211.81V214.092L104.156 214.4H101.972L101.524 213.952V213.462L101.3 213.238H100.348L100.124 213.462V214.54L101.384 215.8H104.744L105.864 214.68V206.224L105.64 206H104.688L104.464 206.224V206.784L103.68 206H101.678L100.124 207.554V211.04L101.678 212.594ZM102.266 211.194L101.524 210.452V208.142L102.266 207.4H103.456L104.464 208.408V210.186L103.456 211.194H102.266ZM112.323 204.88H113.555L113.779 204.656V203.424L113.555 203.2H112.323L112.099 203.424V204.656L112.323 204.88ZM110.573 213H115.025L115.249 212.776V211.824L115.025 211.6H113.863L113.639 211.376V206.224L113.415 206H110.573L110.349 206.224V207.176L110.573 207.4H112.015L112.239 207.624V211.376L112.015 211.6H110.573L110.349 211.824V212.776L110.573 213ZM119.959 213H120.911L121.135 212.776V208.408L122.143 207.4H123.487L124.075 207.988V212.776L124.299 213H125.251L125.475 212.776V207.4L124.075 206H121.919L121.135 206.784V206.224L120.911 206H119.959L119.735 206.224V212.776L119.959 213ZM130.66 213H133.376L133.88 212.496V212.776L134.104 213H135.056L135.28 212.776V207.12L134.16 206H130.66L129.54 207.12V208.086L129.764 208.31H130.716L130.94 208.086V207.708L131.248 207.4H133.572L133.88 207.708V208.576L133.656 208.8H130.66L129.54 209.92V211.88L130.66 213ZM131.248 211.6L130.94 211.292V210.508L131.248 210.2H133.656L133.88 210.424V211.152L133.432 211.6H131.248ZM149.095 213H150.047L150.271 212.776V209.024L150.495 208.8H153.547L153.771 209.024V212.776L153.995 213H154.947L155.171 212.776V203.424L154.947 203.2H153.995L153.771 203.424V207.176L153.547 207.4H150.495L150.271 207.176V203.424L150.047 203.2H149.095L148.871 203.424V212.776L149.095 213ZM161.351 213H162.303L162.527 212.776V204.824L162.751 204.6H164.753L164.977 204.376V203.424L164.753 203.2H158.901L158.677 203.424V204.376L158.901 204.6H160.903L161.127 204.824V212.776L161.351 213ZM168.706 213H169.658L169.882 212.776V205.314L170.932 206.504V209.276L171.156 209.5H172.108L172.332 209.276V206.504L173.382 205.314V212.776L173.606 213H174.558L174.782 212.776V203.424L174.558 203.2H173.382L171.632 205.188L169.882 203.2H168.706L168.482 203.424V212.776L168.706 213ZM178.511 213H184.363L184.587 212.776V211.824L184.363 211.6H179.911L179.687 211.376V203.424L179.463 203.2H178.511L178.287 203.424V212.776L178.511 213ZM190.767 210.2H191.719L191.943 209.976V203.424L191.719 203.2H190.767L190.543 203.424V209.976L190.767 210.2ZM190.557 213H191.929L192.153 212.776V211.404L191.929 211.18H190.557L190.333 211.404V212.776L190.557 213Z" fill="#FF8B8B"/>
</svg>
