<svg width="1043" height="570" viewBox="0 0 1043 570" fill="none" xmlns="http://www.w3.org/2000/svg">
<path d="M1042.5 52.5H0.5V569.5H1042.5V52.5Z" fill="#3A3A3A"/>
<path d="M1042.5 52.5H0.5V569.5H1042.5V52.5Z" stroke="black"/>
<g filter="url(#filter0_iii_757_53)">
<path d="M0 16C0 10.3995 0 7.59921 1.08993 5.46009C2.04867 3.57847 3.57847 2.04867 5.46009 1.08993C7.59921 0 10.3995 0 16 0H1027C1032.6 0 1035.4 0 1037.54 1.08993C1039.42 2.04867 1040.95 3.57847 1041.91 5.46009C1043 7.59921 1043 10.3995 1043 16V52H0V16Z" fill="#363636"/>
</g>
<path d="M943.008 27.3736C943.431 27.3736 943.779 27.0253 943.779 26.6107V18.2676L943.721 17.0402L944.227 17.6456L945.387 18.8813C945.519 19.0306 945.71 19.1052 945.901 19.1052C946.282 19.1052 946.597 18.8315 946.597 18.4417C946.597 18.2344 946.514 18.0851 946.373 17.9441L943.597 15.2654C943.398 15.0663 943.207 15 943.008 15C942.801 15 942.619 15.0663 942.42 15.2654L939.635 17.9441C939.494 18.0851 939.412 18.2344 939.412 18.4417C939.412 18.8315 939.718 19.1052 940.099 19.1052C940.29 19.1052 940.489 19.0306 940.622 18.8813L941.782 17.6456L942.296 17.0319L942.229 18.2676V26.6107C942.229 27.0253 942.577 27.3736 943.008 27.3736ZM938.227 34H947.773C949.572 34 950.5 33.0711 950.5 31.2964V23.144C950.5 21.3693 949.572 20.4404 947.773 20.4404H945.536V22.0908H947.666C948.42 22.0908 948.851 22.4889 948.851 23.285V31.1471C948.851 31.9433 948.42 32.3413 947.666 32.3413H938.334C937.572 32.3413 937.149 31.9433 937.149 31.1471V23.285C937.149 22.4889 937.572 22.0908 938.334 22.0908H940.489V20.4404H938.227C936.436 20.4404 935.5 21.361 935.5 23.144V31.2964C935.5 33.0711 936.436 34 938.227 34Z" fill="#B7B7B7"/>
<path d="M978 32C978.527 32 978.953 31.5723 978.953 31.087V25.9377H984.055C984.565 25.9377 985 25.5182 985 25C985 24.49 984.565 24.0623 984.055 24.0623H978.953V18.913C978.953 18.4195 978.527 18 978 18C977.481 18 977.047 18.4195 977.047 18.913V24.0623H971.945C971.452 24.0623 971 24.49 971 25C971 25.5182 971.452 25.9377 971.945 25.9377H977.047V31.087C977.047 31.5723 977.481 32 978 32Z" fill="#B7B7B7"/>
<path d="M1008.73 30.0348H1010.14V31.2868C1010.14 33.0611 1011.07 33.9897 1012.87 33.9897H1021.27C1023.06 33.9897 1024 33.0611 1024 31.2868V22.8216C1024 21.0473 1023.06 20.1187 1021.27 20.1187H1019.86V18.875C1019.86 17.1007 1018.93 16.1721 1017.13 16.1721H1008.73C1006.93 16.1721 1006 17.1007 1006 18.875V27.3319C1006 29.1145 1006.93 30.0348 1008.73 30.0348ZM1008.84 28.3849C1008.07 28.3849 1007.65 27.9869 1007.65 27.1827V19.0242C1007.65 18.22 1008.07 17.8303 1008.84 17.8303H1017.03C1017.78 17.8303 1018.21 18.22 1018.21 19.0242V20.1187H1012.87C1011.07 20.1187 1010.14 21.0473 1010.14 22.8216V28.3849H1008.84ZM1012.97 32.3315C1012.21 32.3315 1011.8 31.9335 1011.8 31.1376V22.9708C1011.8 22.1749 1012.21 21.7769 1012.97 21.7769H1021.16C1021.93 21.7769 1022.35 22.1749 1022.35 22.9708V31.1376C1022.35 31.9335 1021.93 32.3315 1021.16 32.3315H1012.97Z" fill="#B7B7B7"/>
<path d="M100.731 33.5142H114.934C116.735 33.5142 117.673 32.5845 117.673 30.8081V20.7061C117.673 18.9297 116.735 18 114.934 18H100.731C98.938 18 98 18.9214 98 20.7061V30.8081C98 32.5845 98.938 33.5142 100.731 33.5142ZM100.839 31.8623C100.075 31.8623 99.6519 31.4639 99.6519 30.6587V20.8555C99.6519 20.0503 100.075 19.6519 100.839 19.6519H104.624V31.8623H100.839ZM114.826 19.6519C115.589 19.6519 116.013 20.0503 116.013 20.8555V30.6587C116.013 31.4639 115.589 31.8623 114.826 31.8623H106.193V19.6519H114.826ZM102.997 22.6899C103.296 22.6899 103.545 22.4326 103.545 22.1504C103.545 21.8682 103.296 21.6191 102.997 21.6191H101.295C100.997 21.6191 100.748 21.8682 100.748 22.1504C100.748 22.4326 100.997 22.6899 101.295 22.6899H102.997ZM102.997 24.9229C103.296 24.9229 103.545 24.6738 103.545 24.3833C103.545 24.1011 103.296 23.8521 102.997 23.8521H101.295C100.997 23.8521 100.748 24.1011 100.748 24.3833C100.748 24.6738 100.997 24.9229 101.295 24.9229H102.997ZM102.997 27.1475C103.296 27.1475 103.545 26.9067 103.545 26.6162C103.545 26.334 103.296 26.0933 102.997 26.0933H101.295C100.997 26.0933 100.748 26.334 100.748 26.6162C100.748 26.9067 100.997 27.1475 101.295 27.1475H102.997Z" fill="#B7B7B7"/>
<path d="M149.398 32.0938L143.32 26.1484C143.109 25.9375 143 25.7031 143 25.4297C143 25.1562 143.109 24.9062 143.328 24.7031L149.406 18.7656C149.578 18.5938 149.797 18.5 150.047 18.5C150.57 18.5 150.977 18.9062 150.977 19.4219C150.977 19.6719 150.875 19.9141 150.695 20.0938L145.227 25.4219L150.695 30.7656C150.875 30.9453 150.977 31.1797 150.977 31.4375C150.977 31.9531 150.57 32.3594 150.047 32.3594C149.797 32.3594 149.578 32.2656 149.398 32.0938Z" fill="#B7B7B7"/>
<path d="M179.43 32.3594C179.688 32.3594 179.898 32.2656 180.078 32.0938L186.156 26.1562C186.367 25.9375 186.477 25.7109 186.477 25.4297C186.477 25.1562 186.375 24.9141 186.156 24.7109L180.078 18.7656C179.898 18.5938 179.688 18.5 179.43 18.5C178.906 18.5 178.5 18.9062 178.5 19.4219C178.5 19.6719 178.609 19.9141 178.781 20.0938L184.258 25.4375L178.781 30.7656C178.602 30.9531 178.5 31.1797 178.5 31.4375C178.5 31.9531 178.906 32.3594 179.43 32.3594Z" fill="#5A5A5A"/>
<path d="M26 32C29.3137 32 32 29.3137 32 26C32 22.6863 29.3137 20 26 20C22.6863 20 20 22.6863 20 26C20 29.3137 22.6863 32 26 32Z" fill="#ED6A5E"/>
<path d="M26 31.5C29.0376 31.5 31.5 29.0376 31.5 26C31.5 22.9624 29.0376 20.5 26 20.5C22.9624 20.5 20.5 22.9624 20.5 26C20.5 29.0376 22.9624 31.5 26 31.5Z" stroke="black" stroke-opacity="0.1"/>
<path d="M46 32C49.3137 32 52 29.3137 52 26C52 22.6863 49.3137 20 46 20C42.6863 20 40 22.6863 40 26C40 29.3137 42.6863 32 46 32Z" fill="#F4BD50"/>
<path d="M46 31.5C49.0376 31.5 51.5 29.0376 51.5 26C51.5 22.9624 49.0376 20.5 46 20.5C42.9624 20.5 40.5 22.9624 40.5 26C40.5 29.0376 42.9624 31.5 46 31.5Z" stroke="black" stroke-opacity="0.1"/>
<path d="M66 32C69.3137 32 72 29.3137 72 26C72 22.6863 69.3137 20 66 20C62.6863 20 60 22.6863 60 26C60 29.3137 62.6863 32 66 32Z" fill="#61C454"/>
<path d="M66 31.5C69.0376 31.5 71.5 29.0376 71.5 26C71.5 22.9624 69.0376 20.5 66 20.5C62.9624 20.5 60.5 22.9624 60.5 26C60.5 29.0376 62.9624 31.5 66 31.5Z" stroke="black" stroke-opacity="0.1"/>
<path d="M318.876 21.6C318.876 18.2397 318.876 16.5595 319.53 15.2761C320.105 14.1471 321.023 13.2292 322.152 12.654C323.436 12 325.116 12 328.476 12H714.276C717.636 12 719.316 12 720.6 12.654C721.729 13.2292 722.647 14.1471 723.222 15.2761C723.876 16.5595 723.876 18.2397 723.876 21.6V30.4C723.876 33.7603 723.876 35.4405 723.222 36.7239C722.647 37.8529 721.729 38.7708 720.6 39.346C719.316 40 717.636 40 714.276 40H328.476C325.116 40 323.436 40 322.152 39.346C321.023 38.7708 320.105 37.8529 319.53 36.7239C318.876 35.4405 318.876 33.7603 318.876 30.4V21.6Z" fill="#434343"/>
<path d="M460.898 31H462.375V26.8096C462.375 25.6953 463.045 24.957 464.084 24.957C465.109 24.957 465.615 25.5518 465.615 26.6318V31H467.099V26.3447C467.099 24.6973 466.189 23.6855 464.604 23.6855C463.496 23.6855 462.73 24.1914 462.341 25.0117H462.307V23.8086H460.898V31ZM471.617 31.1367C473.675 31.1367 475.028 29.7217 475.028 27.4043C475.028 25.0938 473.668 23.6787 471.617 23.6787C469.566 23.6787 468.206 25.0938 468.206 27.4043C468.206 29.7217 469.56 31.1367 471.617 31.1367ZM471.617 29.9199C470.462 29.9199 469.71 29.0039 469.71 27.4043C469.71 25.8115 470.462 24.8955 471.617 24.8955C472.772 24.8955 473.524 25.8115 473.524 27.4043C473.524 29.0039 472.779 29.9199 471.617 29.9199ZM482.117 23.8086H480.572L478.768 29.5576H478.74L476.936 23.8086H475.363L477.954 31H479.54L482.117 23.8086ZM485.33 29.9541C484.537 29.9541 484.018 29.5439 484.018 28.915C484.018 28.2998 484.517 27.9102 485.398 27.8486L487.169 27.7393V28.3066C487.169 29.2432 486.362 29.9541 485.33 29.9541ZM484.92 31.123C485.863 31.123 486.772 30.6172 487.189 29.8174H487.224V31H488.639V26.0439C488.639 24.6016 487.524 23.6787 485.781 23.6787C484.004 23.6787 482.896 24.6357 482.814 25.9346H484.209C484.339 25.292 484.872 24.8818 485.727 24.8818C486.629 24.8818 487.169 25.3604 487.169 26.1602V26.7139L485.2 26.8301C483.491 26.9258 482.527 27.6982 482.527 28.9561C482.527 30.248 483.512 31.123 484.92 31.123ZM491.182 31.0752C491.681 31.0752 492.077 30.6787 492.077 30.1797C492.077 29.6807 491.681 29.2842 491.182 29.2842C490.683 29.2842 490.286 29.6807 490.286 30.1797C490.286 30.6787 490.683 31.0752 491.182 31.0752ZM499.542 26.2832C499.412 24.8682 498.284 23.6787 496.432 23.6787C494.388 23.6787 493.048 25.1211 493.048 27.4043C493.048 29.7285 494.388 31.1367 496.445 31.1367C498.175 31.1367 499.398 30.0977 499.556 28.5664H498.134C497.963 29.4004 497.368 29.8994 496.459 29.8994C495.311 29.8994 494.552 28.9834 494.552 27.4043C494.552 25.8594 495.304 24.9092 496.445 24.9092C497.409 24.9092 497.983 25.5176 498.134 26.2832H499.542ZM503.691 31.1367C505.749 31.1367 507.103 29.7217 507.103 27.4043C507.103 25.0938 505.742 23.6787 503.691 23.6787C501.641 23.6787 500.28 25.0938 500.28 27.4043C500.28 29.7217 501.634 31.1367 503.691 31.1367ZM503.691 29.9199C502.536 29.9199 501.784 29.0039 501.784 27.4043C501.784 25.8115 502.536 24.8955 503.691 24.8955C504.847 24.8955 505.599 25.8115 505.599 27.4043C505.599 29.0039 504.854 29.9199 503.691 29.9199ZM508.244 31H509.721V26.5566C509.721 25.6338 510.343 24.9502 511.218 24.9502C512.052 24.9502 512.578 25.4766 512.578 26.3037V31H514.027V26.5088C514.027 25.5996 514.636 24.9502 515.511 24.9502C516.386 24.9502 516.885 25.4834 516.885 26.4131V31H518.368V26.0576C518.368 24.6289 517.438 23.6855 516.017 23.6855C514.991 23.6855 514.144 24.2188 513.774 25.0938H513.74C513.453 24.1982 512.729 23.6855 511.73 23.6855C510.76 23.6855 510.008 24.2188 509.687 25.0186H509.652V23.8086H508.244V31ZM520.378 33.1055L523.878 21.1357H522.565L519.065 33.1055H520.378ZM525.04 22.1064V23.8086H523.994V24.9775H525.04V29.1064C525.04 30.4941 525.607 31.0479 527.063 31.0479C527.392 31.0479 527.72 31.0205 527.884 30.9795V29.8105C527.788 29.8311 527.549 29.8447 527.398 29.8447C526.797 29.8447 526.523 29.5645 526.523 28.9424V24.9775H527.891V23.8086H526.523V22.1064H525.04ZM529.107 31H530.584V26.6934C530.584 25.6748 531.172 25.0391 532.122 25.0391C532.409 25.0391 532.669 25.0732 532.785 25.1211V23.7471C532.676 23.7266 532.491 23.6924 532.279 23.6924C531.432 23.6924 530.789 24.1914 530.55 25.0322H530.516V23.8086H529.107V31ZM536.477 31.1367C538.534 31.1367 539.888 29.7217 539.888 27.4043C539.888 25.0938 538.527 23.6787 536.477 23.6787C534.426 23.6787 533.065 25.0938 533.065 27.4043C533.065 29.7217 534.419 31.1367 536.477 31.1367ZM536.477 29.9199C535.321 29.9199 534.569 29.0039 534.569 27.4043C534.569 25.8115 535.321 24.8955 536.477 24.8955C537.632 24.8955 538.384 25.8115 538.384 27.4043C538.384 29.0039 537.639 29.9199 536.477 29.9199ZM546.977 23.8086H545.432L543.627 29.5576H543.6L541.795 23.8086H540.223L542.813 31H544.399L546.977 23.8086ZM550.189 29.9541C549.396 29.9541 548.877 29.5439 548.877 28.915C548.877 28.2998 549.376 27.9102 550.258 27.8486L552.028 27.7393V28.3066C552.028 29.2432 551.222 29.9541 550.189 29.9541ZM549.779 31.123C550.723 31.123 551.632 30.6172 552.049 29.8174H552.083V31H553.498V26.0439C553.498 24.6016 552.384 23.6787 550.641 23.6787C548.863 23.6787 547.756 24.6357 547.674 25.9346H549.068C549.198 25.292 549.731 24.8818 550.586 24.8818C551.488 24.8818 552.028 25.3604 552.028 26.1602V26.7139L550.06 26.8301C548.351 26.9258 547.387 27.6982 547.387 28.9561C547.387 30.248 548.371 31.123 549.779 31.123ZM560.286 32.8252V31.7314H553.854V32.8252H560.286ZM560.717 31H562.193V21.1357H560.717V31ZM566.227 29.9541C565.434 29.9541 564.914 29.5439 564.914 28.915C564.914 28.2998 565.413 27.9102 566.295 27.8486L568.065 27.7393V28.3066C568.065 29.2432 567.259 29.9541 566.227 29.9541ZM565.816 31.123C566.76 31.123 567.669 30.6172 568.086 29.8174H568.12V31H569.535V26.0439C569.535 24.6016 568.421 23.6787 566.678 23.6787C564.9 23.6787 563.793 24.6357 563.711 25.9346H565.105C565.235 25.292 565.769 24.8818 566.623 24.8818C567.525 24.8818 568.065 25.3604 568.065 26.1602V26.7139L566.097 26.8301C564.388 26.9258 563.424 27.6982 563.424 28.9561C563.424 30.248 564.408 31.123 565.816 31.123ZM577.109 23.8086H575.564L573.76 29.5576H573.732L571.928 23.8086H570.355L572.946 31H574.532L577.109 23.8086ZM580.842 31.1367C582.899 31.1367 584.253 29.7217 584.253 27.4043C584.253 25.0938 582.893 23.6787 580.842 23.6787C578.791 23.6787 577.431 25.0938 577.431 27.4043C577.431 29.7217 578.784 31.1367 580.842 31.1367ZM580.842 29.9199C579.687 29.9199 578.935 29.0039 578.935 27.4043C578.935 25.8115 579.687 24.8955 580.842 24.8955C581.997 24.8955 582.749 25.8115 582.749 27.4043C582.749 29.0039 582.004 29.9199 580.842 29.9199ZM585.395 31H586.871V26.6934C586.871 25.6748 587.459 25.0391 588.409 25.0391C588.696 25.0391 588.956 25.0732 589.072 25.1211V23.7471C588.963 23.7266 588.778 23.6924 588.566 23.6924C587.719 23.6924 587.076 24.1914 586.837 25.0322H586.803V23.8086H585.395V31ZM592.764 31.1367C594.821 31.1367 596.175 29.7217 596.175 27.4043C596.175 25.0938 594.814 23.6787 592.764 23.6787C590.713 23.6787 589.353 25.0938 589.353 27.4043C589.353 29.7217 590.706 31.1367 592.764 31.1367ZM592.764 29.9199C591.608 29.9199 590.856 29.0039 590.856 27.4043C590.856 25.8115 591.608 24.8955 592.764 24.8955C593.919 24.8955 594.671 25.8115 594.671 27.4043C594.671 29.0039 593.926 29.9199 592.764 29.9199Z" fill="white"/>
<path d="M711.706 24.7324C711.876 24.7324 712.011 24.6797 712.116 24.5684L714.519 22.1484C714.647 22.0195 714.706 21.8789 714.706 21.7148C714.706 21.5566 714.642 21.4043 714.519 21.2871L712.116 18.8438C712.011 18.7266 711.876 18.668 711.706 18.668C711.39 18.668 711.138 18.9316 711.138 19.2539C711.138 19.4121 711.196 19.541 711.296 19.6523L712.696 21.0234C712.421 20.9824 712.14 20.959 711.858 20.959C708.958 20.959 706.638 23.2793 706.638 26.1855C706.638 29.0918 708.976 31.4297 711.876 31.4297C714.782 31.4297 717.114 29.0918 717.114 26.1855C717.114 25.834 716.868 25.582 716.517 25.582C716.177 25.582 715.948 25.834 715.948 26.1855C715.948 28.4473 714.138 30.2637 711.876 30.2637C709.62 30.2637 707.804 28.4473 707.804 26.1855C707.804 23.9062 709.603 22.1016 711.858 22.1016C712.239 22.1016 712.591 22.1309 712.901 22.1836L711.302 23.7656C711.196 23.8711 711.138 24 711.138 24.1582C711.138 24.4805 711.39 24.7324 711.706 24.7324Z" fill="#E3E3E3"/>
<path d="M295.876 34C296.025 34 296.248 33.9499 296.455 33.8329C301.221 31.2182 302.876 30.0069 302.876 26.9661V20.659C302.876 19.6565 302.487 19.2973 301.66 18.9381C300.741 18.5455 297.655 17.4595 296.753 17.1504C296.48 17.0585 296.157 17 295.876 17C295.595 17 295.272 17.0752 294.999 17.1504C294.097 17.4093 291.011 18.5538 290.092 18.9381C289.265 19.2889 288.876 19.6565 288.876 20.659V26.9661C288.876 30.0069 290.539 31.2015 295.289 33.8329C295.504 33.9499 295.727 34 295.876 34ZM296.323 18.6875C297.407 19.1219 299.765 19.9656 301.006 20.4084C301.238 20.5002 301.296 20.6256 301.296 20.9263V26.657C301.296 29.1047 300.079 29.7646 296.348 32.0369C296.116 32.1789 296 32.229 295.884 32.229V18.5956C296 18.5956 296.124 18.6206 296.323 18.6875Z" fill="#B7B7B7"/>
<defs>
<filter id="filter0_iii_757_53" x="-0.5" y="0" width="1044" height="53" filterUnits="userSpaceOnUse" color-interpolation-filters="sRGB">
<feFlood flood-opacity="0" result="BackgroundImageFix"/>
<feBlend mode="normal" in="SourceGraphic" in2="BackgroundImageFix" result="shape"/>
<feColorMatrix in="SourceAlpha" type="matrix" values="0 0 0 0 0 0 0 0 0 0 0 0 0 0 0 0 0 0 127 0" result="hardAlpha"/>
<feOffset dx="-0.5"/>
<feGaussianBlur stdDeviation="2"/>
<feComposite in2="hardAlpha" operator="arithmetic" k2="-1" k3="1"/>
<feColorMatrix type="matrix" values="0 0 0 0 0.290196 0 0 0 0 0.290196 0 0 0 0 0.290196 0 0 0 1 0"/>
<feBlend mode="normal" in2="shape" result="effect1_innerShadow_757_53"/>
<feColorMatrix in="SourceAlpha" type="matrix" values="0 0 0 0 0 0 0 0 0 0 0 0 0 0 0 0 0 0 127 0" result="hardAlpha"/>
<feOffset dx="0.5"/>
<feGaussianBlur stdDeviation="2"/>
<feComposite in2="hardAlpha" operator="arithmetic" k2="-1" k3="1"/>
<feColorMatrix type="matrix" values="0 0 0 0 0.290196 0 0 0 0 0.290196 0 0 0 0 0.290196 0 0 0 1 0"/>
<feBlend mode="normal" in2="effect1_innerShadow_757_53" result="effect2_innerShadow_757_53"/>
<feColorMatrix in="SourceAlpha" type="matrix" values="0 0 0 0 0 0 0 0 0 0 0 0 0 0 0 0 0 0 127 0" result="hardAlpha"/>
<feOffset dy="1"/>
<feGaussianBlur stdDeviation="2"/>
<feComposite in2="hardAlpha" operator="arithmetic" k2="-1" k3="1"/>
<feColorMatrix type="matrix" values="0 0 0 0 0.494118 0 0 0 0 0.494118 0 0 0 0 0.494118 0 0 0 1 0"/>
<feBlend mode="normal" in2="effect2_innerShadow_757_53" result="effect3_innerShadow_757_53"/>
</filter>
</defs>
</svg>
