<svg width="587" height="40" viewBox="0 0 587 40" fill="none" xmlns="http://www.w3.org/2000/svg">
<g filter="url(#filter0_d_0_1)">
<rect x="50" width="88" height="32" rx="16" fill="#242424"/>
<rect x="50.5" y="0.5" width="87" height="31" rx="15.5" stroke="white"/>
</g>
<line x1="137.5" y1="15.5" x2="586.5" y2="15.5" stroke="white" stroke-linecap="round"/>
<line x1="0.5" y1="15.5" x2="49.5" y2="15.5" stroke="white" stroke-linecap="round"/>
<path d="M70.75 21H69.476L64.352 13.23V21H63.078V11.228H64.352L69.476 18.984V11.228H70.75V21ZM78.7457 21.098C77.8404 21.098 77.0144 20.888 76.2677 20.468C75.5211 20.0387 74.9284 19.446 74.4897 18.69C74.0604 17.9247 73.8457 17.066 73.8457 16.114C73.8457 15.162 74.0604 14.308 74.4897 13.552C74.9284 12.7867 75.5211 12.194 76.2677 11.774C77.0144 11.3447 77.8404 11.13 78.7457 11.13C79.6604 11.13 80.4911 11.3447 81.2378 11.774C81.9844 12.194 82.5724 12.782 83.0017 13.538C83.4311 14.294 83.6458 15.1527 83.6458 16.114C83.6458 17.0753 83.4311 17.934 83.0017 18.69C82.5724 19.446 81.9844 20.0387 81.2378 20.468C80.4911 20.888 79.6604 21.098 78.7457 21.098ZM78.7457 19.992C79.4271 19.992 80.0384 19.8333 80.5798 19.516C81.1304 19.1987 81.5597 18.746 81.8678 18.158C82.1851 17.57 82.3438 16.8887 82.3438 16.114C82.3438 15.33 82.1851 14.6487 81.8678 14.07C81.5597 13.482 81.1351 13.0293 80.5938 12.712C80.0524 12.3947 79.4364 12.236 78.7457 12.236C78.0551 12.236 77.4391 12.3947 76.8977 12.712C76.3564 13.0293 75.9271 13.482 75.6097 14.07C75.3017 14.6487 75.1477 15.33 75.1477 16.114C75.1477 16.8887 75.3017 17.57 75.6097 18.158C75.9271 18.746 76.3564 19.1987 76.8977 19.516C77.4484 19.8333 78.0644 19.992 78.7457 19.992ZM94.7916 11.242L91.1096 21H89.6396L85.9576 11.242H87.3156L90.3816 19.656L93.4476 11.242H94.7916ZM103.357 18.83H99.1005L98.3165 21H96.9725L100.501 11.298H101.971L105.485 21H104.141L103.357 18.83ZM102.993 17.794L101.229 12.866L99.4645 17.794H102.993ZM107.904 18.746V17.78L112.818 10.976H114.344V17.64H115.744V18.746H114.344V21H113.084V18.746H107.904ZM113.14 12.306L109.374 17.64H113.14V12.306ZM118.263 19.978C119.448 19.026 120.377 18.2467 121.049 17.64C121.721 17.024 122.285 16.3847 122.743 15.722C123.209 15.05 123.443 14.392 123.443 13.748C123.443 13.1413 123.293 12.6653 122.995 12.32C122.705 11.9653 122.234 11.788 121.581 11.788C120.946 11.788 120.451 11.9887 120.097 12.39C119.751 12.782 119.565 13.3093 119.537 13.972H118.305C118.342 12.9267 118.659 12.1193 119.257 11.55C119.854 10.9807 120.624 10.696 121.567 10.696C122.528 10.696 123.289 10.962 123.849 11.494C124.418 12.026 124.703 12.7587 124.703 13.692C124.703 14.4667 124.469 15.2227 124.003 15.96C123.545 16.688 123.023 17.332 122.435 17.892C121.847 18.4427 121.095 19.0867 120.181 19.824H124.997V20.888H118.263V19.978Z" fill="white"/>
<defs>
<filter id="filter0_d_0_1" x="46" y="0" width="96" height="40" filterUnits="userSpaceOnUse" color-interpolation-filters="sRGB">
<feFlood flood-opacity="0" result="BackgroundImageFix"/>
<feColorMatrix in="SourceAlpha" type="matrix" values="0 0 0 0 0 0 0 0 0 0 0 0 0 0 0 0 0 0 127 0" result="hardAlpha"/>
<feOffset dy="4"/>
<feGaussianBlur stdDeviation="2"/>
<feComposite in2="hardAlpha" operator="out"/>
<feColorMatrix type="matrix" values="0 0 0 0 0 0 0 0 0 0 0 0 0 0 0 0 0 0 0.25 0"/>
<feBlend mode="normal" in2="BackgroundImageFix" result="effect1_dropShadow_0_1"/>
<feBlend mode="normal" in="SourceGraphic" in2="effect1_dropShadow_0_1" result="shape"/>
</filter>
</defs>
</svg>
