<svg width="583" height="40" viewBox="0 0 583 40" fill="none" xmlns="http://www.w3.org/2000/svg">
<line x1="0.5" y1="15.5" x2="49.5" y2="15.5" stroke="white" stroke-linecap="round"/>
<g filter="url(#filter0_d_0_1)">
<rect x="46" width="88" height="32" rx="16" fill="#242424"/>
<rect x="46.5" y="0.5" width="87" height="31" rx="15.5" stroke="white"/>
</g>
<line x1="133.5" y1="15.5" x2="582.5" y2="15.5" stroke="white" stroke-linecap="round"/>
<path d="M65.602 14.098C65.602 14.91 65.322 15.5867 64.762 16.128C64.2113 16.66 63.3667 16.926 62.228 16.926H60.352V21H59.078V11.242H62.228C63.3293 11.242 64.1647 11.508 64.734 12.04C65.3127 12.572 65.602 13.258 65.602 14.098ZM62.228 15.876C62.9373 15.876 63.46 15.722 63.796 15.414C64.132 15.106 64.3 14.6673 64.3 14.098C64.3 12.894 63.6093 12.292 62.228 12.292H60.352V15.876H62.228ZM73.7234 21L71.3994 17.01H69.8594V21H68.5854V11.242H71.7354C72.4728 11.242 73.0934 11.368 73.5974 11.62C74.1108 11.872 74.4934 12.2127 74.7454 12.642C74.9974 13.0713 75.1234 13.5613 75.1234 14.112C75.1234 14.784 74.9274 15.3767 74.5354 15.89C74.1528 16.4033 73.5741 16.744 72.7994 16.912L75.2494 21H73.7234ZM69.8594 15.988H71.7354C72.4261 15.988 72.9441 15.82 73.2894 15.484C73.6348 15.1387 73.8074 14.6813 73.8074 14.112C73.8074 13.5333 73.6348 13.0853 73.2894 12.768C72.9534 12.4507 72.4354 12.292 71.7354 12.292H69.8594V15.988ZM82.927 21.098C82.0217 21.098 81.1957 20.888 80.449 20.468C79.7023 20.0387 79.1097 19.446 78.671 18.69C78.2417 17.9247 78.027 17.066 78.027 16.114C78.027 15.162 78.2417 14.308 78.671 13.552C79.1097 12.7867 79.7023 12.194 80.449 11.774C81.1957 11.3447 82.0217 11.13 82.927 11.13C83.8417 11.13 84.6723 11.3447 85.419 11.774C86.1657 12.194 86.7537 12.782 87.183 13.538C87.6123 14.294 87.827 15.1527 87.827 16.114C87.827 17.0753 87.6123 17.934 87.183 18.69C86.7537 19.446 86.1657 20.0387 85.419 20.468C84.6723 20.888 83.8417 21.098 82.927 21.098ZM82.927 19.992C83.6083 19.992 84.2197 19.8333 84.761 19.516C85.3117 19.1987 85.741 18.746 86.049 18.158C86.3663 17.57 86.525 16.8887 86.525 16.114C86.525 15.33 86.3663 14.6487 86.049 14.07C85.741 13.482 85.3163 13.0293 84.775 12.712C84.2337 12.3947 83.6177 12.236 82.927 12.236C82.2363 12.236 81.6203 12.3947 81.079 12.712C80.5377 13.0293 80.1083 13.482 79.791 14.07C79.483 14.6487 79.329 15.33 79.329 16.114C79.329 16.8887 79.483 17.57 79.791 18.158C80.1083 18.746 80.5377 19.1987 81.079 19.516C81.6297 19.8333 82.2457 19.992 82.927 19.992Z" fill="white"/>
<defs>
<filter id="filter0_d_0_1" x="42" y="0" width="96" height="40" filterUnits="userSpaceOnUse" color-interpolation-filters="sRGB">
<feFlood flood-opacity="0" result="BackgroundImageFix"/>
<feColorMatrix in="SourceAlpha" type="matrix" values="0 0 0 0 0 0 0 0 0 0 0 0 0 0 0 0 0 0 127 0" result="hardAlpha"/>
<feOffset dy="4"/>
<feGaussianBlur stdDeviation="2"/>
<feComposite in2="hardAlpha" operator="out"/>
<feColorMatrix type="matrix" values="0 0 0 0 0 0 0 0 0 0 0 0 0 0 0 0 0 0 0.25 0"/>
<feBlend mode="normal" in2="BackgroundImageFix" result="effect1_dropShadow_0_1"/>
<feBlend mode="normal" in="SourceGraphic" in2="effect1_dropShadow_0_1" result="shape"/>
</filter>
</defs>
</svg>
